<svg xmlns="http://www.w3.org/2000/svg" viewBox="0 0 76.54 14.51"><defs><style>.cls-1{fill:#101820;}</style></defs><g id="Layer_2" data-name="Layer 2"><g id="Layer_1-2" data-name="Layer 1"><path class="cls-1" d="M0,10.1c0-3,2.23-4.35,5.68-4.35l4.13,0V5c0-1.49-1.35-2.07-3.07-2.07-1.36,0-2.71.37-3.11,1.69l-3.29,0C.37,1.78,3.26,0,6.66,0s6.41,1.78,6.41,4.59v9.7H9.81V12.54a5.85,5.85,0,0,1-4.53,2C3.18,14.51,0,13.63,0,10.1ZM9.81,8.19H6.31c-2,0-3,.88-2.86,2s1.27,1.49,2.12,1.49C7.61,11.67,9.81,10.16,9.81,8.19Z"/><path class="cls-1" d="M15.89.24h3.44V1.8A5.46,5.46,0,0,1,23.5,0a5.58,5.58,0,0,1,5.86,5.62v8.67H25.91V6.52a3.1,3.1,0,0,0-3.1-3.31,3.55,3.55,0,0,0-3.48,3.84v7.24H15.89Z"/><path class="cls-1" d="M31.35,7.24a7.23,7.23,0,1,1,7.21,7.27A7.24,7.24,0,0,1,31.35,7.24Zm11.24,0a4,4,0,1,0-8,0,4,4,0,1,0,8,0Z"/><path class="cls-1" d="M47.79.24h3.45V1.8A5.45,5.45,0,0,1,55.4,0a5.57,5.57,0,0,1,5.86,5.62v8.67H57.81V6.52a3.1,3.1,0,0,0-3.1-3.31,3.54,3.54,0,0,0-3.47,3.84v7.24H47.79Z"/><path class="cls-1" d="M63.46,10.1c0-3,2.23-4.35,5.68-4.35l4.13,0V5c0-1.49-1.35-2.07-3.07-2.07-1.36,0-2.71.37-3.11,1.69l-3.28,0C63.83,1.78,66.72,0,70.12,0s6.42,1.78,6.42,4.59v9.7H73.27V12.54a5.85,5.85,0,0,1-4.53,2C66.64,14.51,63.46,13.63,63.46,10.1Zm9.81-1.91h-3.5c-2,0-3,.88-2.86,2s1.27,1.49,2.12,1.49C71.07,11.67,73.27,10.16,73.27,8.19Z"/></g></g></svg>